<svg xmlns="http://www.w3.org/2000/svg" width="120" height="120" viewBox="0 0 120 120">
  <style>
    .water { fill: #4dabf7; }
    .trash { fill: #6a3db3; }
    .wave { fill: none; stroke: #4dabf7; stroke-width: 3; stroke-linecap: round; }
  </style>
  <circle cx="60" cy="60" r="55" fill="white" stroke="#eee" stroke-width="2"/>
  <path class="water" d="M30,70 C40,60 50,80 60,70 C70,60 80,80 90,70 L90,100 L30,100 Z"/>
  <path class="trash" d="M45,35 L75,35 L80,40 L80,60 C80,65 75,70 70,70 L50,70 C45,70 40,65 40,60 L40,40 Z"/>
  <line class="wave" x1="40" y1="50" x2="80" y2="50"/>
  <line class="wave" x1="40" y1="60" x2="80" y2="60"/>
  <path class="trash" d="M55,25 L65,25 L65,35 L55,35 Z"/>
</svg>
